<mxfile host="app.diagrams.net" modified="2023-08-24T02:08:16.166Z" agent="Mozilla/5.0 (Windows NT 10.0; Win64; x64) AppleWebKit/537.36 (KHTML, like Gecko) Chrome/116.0.0.0 Safari/537.36" etag="fT9hyPz6aRrusyHz3hW7" version="21.6.9" type="device">
  <diagram name="페이지-1" id="EEFwAQIul8n71x9JTM-f">
    <mxGraphModel dx="1613" dy="718" grid="1" gridSize="10" guides="1" tooltips="1" connect="1" arrows="1" fold="1" page="1" pageScale="1" pageWidth="827" pageHeight="1169" math="0" shadow="0">
      <root>
        <mxCell id="0" />
        <mxCell id="1" parent="0" />
        <mxCell id="9qTblX96NDCuLqG39Ha0-1" value="Actor" style="rounded=0;whiteSpace=wrap;html=1;" parent="1" vertex="1">
          <mxGeometry x="54" y="63" width="120" height="60" as="geometry" />
        </mxCell>
        <mxCell id="9qTblX96NDCuLqG39Ha0-2" value="Front" style="rounded=0;whiteSpace=wrap;html=1;" parent="1" vertex="1">
          <mxGeometry x="254" y="63" width="120" height="60" as="geometry" />
        </mxCell>
        <mxCell id="9qTblX96NDCuLqG39Ha0-4" value="Back" style="rounded=0;whiteSpace=wrap;html=1;" parent="1" vertex="1">
          <mxGeometry x="454" y="63" width="120" height="60" as="geometry" />
        </mxCell>
        <mxCell id="9qTblX96NDCuLqG39Ha0-5" value="DB" style="rounded=0;whiteSpace=wrap;html=1;" parent="1" vertex="1">
          <mxGeometry x="654" y="63" width="120" height="60" as="geometry" />
        </mxCell>
        <mxCell id="9qTblX96NDCuLqG39Ha0-6" value="" style="endArrow=none;dashed=1;html=1;rounded=0;entryX=0.5;entryY=1;entryDx=0;entryDy=0;" parent="1" target="9qTblX96NDCuLqG39Ha0-1" edge="1">
          <mxGeometry width="50" height="50" relative="1" as="geometry">
            <mxPoint x="110" y="1180" as="sourcePoint" />
            <mxPoint x="442" y="293" as="targetPoint" />
          </mxGeometry>
        </mxCell>
        <mxCell id="9qTblX96NDCuLqG39Ha0-9" value="" style="endArrow=none;dashed=1;html=1;rounded=0;entryX=0.5;entryY=1;entryDx=0;entryDy=0;" parent="1" edge="1">
          <mxGeometry width="50" height="50" relative="1" as="geometry">
            <mxPoint x="310" y="1180" as="sourcePoint" />
            <mxPoint x="313.5" y="123" as="targetPoint" />
          </mxGeometry>
        </mxCell>
        <mxCell id="9qTblX96NDCuLqG39Ha0-10" value="" style="endArrow=none;dashed=1;html=1;rounded=0;entryX=0.5;entryY=1;entryDx=0;entryDy=0;exitX=0.622;exitY=0.001;exitDx=0;exitDy=0;exitPerimeter=0;" parent="1" edge="1" source="tfsZfrH5hsYuIwGa3G0R-36">
          <mxGeometry width="50" height="50" relative="1" as="geometry">
            <mxPoint x="514" y="1120" as="sourcePoint" />
            <mxPoint x="513.5" y="123" as="targetPoint" />
          </mxGeometry>
        </mxCell>
        <mxCell id="9qTblX96NDCuLqG39Ha0-11" value="" style="endArrow=none;dashed=1;html=1;rounded=0;entryX=0.5;entryY=1;entryDx=0;entryDy=0;exitX=0.869;exitY=0;exitDx=0;exitDy=0;exitPerimeter=0;" parent="1" edge="1" source="tfsZfrH5hsYuIwGa3G0R-36">
          <mxGeometry width="50" height="50" relative="1" as="geometry">
            <mxPoint x="714" y="1120" as="sourcePoint" />
            <mxPoint x="713.5" y="123" as="targetPoint" />
          </mxGeometry>
        </mxCell>
        <mxCell id="9qTblX96NDCuLqG39Ha0-16" value="내사진" style="swimlane;whiteSpace=wrap;html=1;" parent="1" vertex="1">
          <mxGeometry x="10" y="10" width="810" height="1140" as="geometry">
            <mxRectangle x="10" y="10" width="100" height="30" as="alternateBounds" />
          </mxGeometry>
        </mxCell>
        <mxCell id="tfsZfrH5hsYuIwGa3G0R-1" value="ref" style="shape=umlFrame;whiteSpace=wrap;html=1;pointerEvents=0;" vertex="1" parent="9qTblX96NDCuLqG39Ha0-16">
          <mxGeometry x="60" y="140" width="290" height="120" as="geometry" />
        </mxCell>
        <mxCell id="tfsZfrH5hsYuIwGa3G0R-2" value="Log In" style="text;html=1;align=center;verticalAlign=middle;resizable=0;points=[];autosize=1;strokeColor=none;fillColor=none;" vertex="1" parent="9qTblX96NDCuLqG39Ha0-16">
          <mxGeometry x="175" y="180" width="60" height="30" as="geometry" />
        </mxCell>
        <mxCell id="tfsZfrH5hsYuIwGa3G0R-3" value="1. 내사진 메뉴 클릭" style="html=1;verticalAlign=bottom;endArrow=block;edgeStyle=elbowEdgeStyle;elbow=horizontal;curved=0;rounded=0;" edge="1" parent="9qTblX96NDCuLqG39Ha0-16">
          <mxGeometry width="80" relative="1" as="geometry">
            <mxPoint x="102" y="300" as="sourcePoint" />
            <mxPoint x="302" y="300" as="targetPoint" />
            <mxPoint as="offset" />
          </mxGeometry>
        </mxCell>
        <mxCell id="tfsZfrH5hsYuIwGa3G0R-4" value="1.1. 접속 사용자 확인" style="html=1;verticalAlign=bottom;endArrow=block;edgeStyle=elbowEdgeStyle;elbow=horizontal;curved=0;rounded=0;" edge="1" parent="9qTblX96NDCuLqG39Ha0-16">
          <mxGeometry width="80" relative="1" as="geometry">
            <mxPoint x="304" y="330" as="sourcePoint" />
            <mxPoint x="504" y="330" as="targetPoint" />
          </mxGeometry>
        </mxCell>
        <mxCell id="tfsZfrH5hsYuIwGa3G0R-5" value="1.1.1. session Id 전달" style="html=1;verticalAlign=bottom;endArrow=block;edgeStyle=elbowEdgeStyle;elbow=vertical;curved=0;rounded=0;" edge="1" parent="9qTblX96NDCuLqG39Ha0-16">
          <mxGeometry width="80" relative="1" as="geometry">
            <mxPoint x="503" y="361" as="sourcePoint" />
            <mxPoint x="703" y="361" as="targetPoint" />
          </mxGeometry>
        </mxCell>
        <mxCell id="tfsZfrH5hsYuIwGa3G0R-10" value="1.1.1.1.&lt;br&gt;처리 내역 조회" style="html=1;align=left;spacingLeft=2;endArrow=block;rounded=0;edgeStyle=orthogonalEdgeStyle;curved=0;rounded=0;" edge="1" parent="9qTblX96NDCuLqG39Ha0-16">
          <mxGeometry x="-0.0526" relative="1" as="geometry">
            <mxPoint x="704" y="373" as="sourcePoint" />
            <Array as="points">
              <mxPoint x="729" y="373" />
              <mxPoint x="729" y="413" />
            </Array>
            <mxPoint x="704" y="413" as="targetPoint" />
            <mxPoint as="offset" />
          </mxGeometry>
        </mxCell>
        <mxCell id="tfsZfrH5hsYuIwGa3G0R-11" value="1.1.2. 해당 결과값" style="endArrow=open;endSize=12;dashed=1;html=1;rounded=0;" edge="1" parent="9qTblX96NDCuLqG39Ha0-16">
          <mxGeometry x="0.0256" y="-10" width="160" relative="1" as="geometry">
            <mxPoint x="700" y="430" as="sourcePoint" />
            <mxPoint x="505" y="430" as="targetPoint" />
            <mxPoint as="offset" />
          </mxGeometry>
        </mxCell>
        <mxCell id="tfsZfrH5hsYuIwGa3G0R-12" value="1.2. 해당 결과값" style="endArrow=open;endSize=12;dashed=1;html=1;rounded=0;" edge="1" parent="9qTblX96NDCuLqG39Ha0-16">
          <mxGeometry x="0.0256" y="-10" width="160" relative="1" as="geometry">
            <mxPoint x="500" y="460" as="sourcePoint" />
            <mxPoint x="305" y="460" as="targetPoint" />
            <mxPoint as="offset" />
          </mxGeometry>
        </mxCell>
        <mxCell id="tfsZfrH5hsYuIwGa3G0R-13" value="1.3. 해당 페이지" style="endArrow=open;endSize=12;dashed=1;html=1;rounded=0;" edge="1" parent="9qTblX96NDCuLqG39Ha0-16">
          <mxGeometry x="0.0256" y="-10" width="160" relative="1" as="geometry">
            <mxPoint x="300.5" y="490" as="sourcePoint" />
            <mxPoint x="105.5" y="490" as="targetPoint" />
            <mxPoint as="offset" />
          </mxGeometry>
        </mxCell>
        <mxCell id="tfsZfrH5hsYuIwGa3G0R-14" value="2. 이미지 체크박스 선택" style="html=1;verticalAlign=bottom;endArrow=block;edgeStyle=elbowEdgeStyle;elbow=vertical;curved=0;rounded=0;" edge="1" parent="9qTblX96NDCuLqG39Ha0-16">
          <mxGeometry width="80" relative="1" as="geometry">
            <mxPoint x="103" y="542" as="sourcePoint" />
            <mxPoint x="303" y="542" as="targetPoint" />
          </mxGeometry>
        </mxCell>
        <mxCell id="tfsZfrH5hsYuIwGa3G0R-15" value="2.1. 선택 이미지 Id 변수에 파일명 추가, 선택 이미지 갯수 변수에 +1" style="html=1;align=left;spacingLeft=2;endArrow=block;rounded=0;edgeStyle=orthogonalEdgeStyle;curved=0;rounded=0;" edge="1" parent="9qTblX96NDCuLqG39Ha0-16">
          <mxGeometry x="-0.2" y="4" relative="1" as="geometry">
            <mxPoint x="301" y="559" as="sourcePoint" />
            <Array as="points">
              <mxPoint x="326" y="559" />
              <mxPoint x="326" y="599" />
            </Array>
            <mxPoint x="301" y="599" as="targetPoint" />
            <mxPoint as="offset" />
          </mxGeometry>
        </mxCell>
        <mxCell id="tfsZfrH5hsYuIwGa3G0R-16" value="2.2. &amp;lt;저장&amp;gt;,&amp;lt;삭제&amp;gt; 버튼 활성화" style="endArrow=open;endSize=12;dashed=1;html=1;rounded=0;" edge="1" parent="9qTblX96NDCuLqG39Ha0-16">
          <mxGeometry x="0.0256" y="-10" width="160" relative="1" as="geometry">
            <mxPoint x="297.5" y="644" as="sourcePoint" />
            <mxPoint x="102.5" y="644" as="targetPoint" />
            <mxPoint as="offset" />
          </mxGeometry>
        </mxCell>
        <mxCell id="tfsZfrH5hsYuIwGa3G0R-17" value="2.2. 선택 이미지 Id 변수에 파일명 제거, 선택 이미지 갯수 변수에 -1" style="html=1;align=left;spacingLeft=2;endArrow=block;rounded=0;edgeStyle=orthogonalEdgeStyle;curved=0;rounded=0;" edge="1" parent="9qTblX96NDCuLqG39Ha0-16">
          <mxGeometry x="-0.0526" relative="1" as="geometry">
            <mxPoint x="301.5" y="691" as="sourcePoint" />
            <Array as="points">
              <mxPoint x="326.5" y="691" />
              <mxPoint x="326.5" y="731" />
            </Array>
            <mxPoint x="301.5" y="731" as="targetPoint" />
            <mxPoint as="offset" />
          </mxGeometry>
        </mxCell>
        <mxCell id="tfsZfrH5hsYuIwGa3G0R-18" value="2.3. 해당 메시지" style="endArrow=open;endSize=12;dashed=1;html=1;rounded=0;" edge="1" parent="9qTblX96NDCuLqG39Ha0-16">
          <mxGeometry x="0.0256" y="-10" width="160" relative="1" as="geometry">
            <mxPoint x="298" y="754" as="sourcePoint" />
            <mxPoint x="103" y="754" as="targetPoint" />
            <mxPoint as="offset" />
          </mxGeometry>
        </mxCell>
        <mxCell id="tfsZfrH5hsYuIwGa3G0R-19" value="3. 이미지 체크박스 선택 풀기" style="html=1;verticalAlign=bottom;endArrow=block;edgeStyle=elbowEdgeStyle;elbow=vertical;curved=0;rounded=0;" edge="1" parent="9qTblX96NDCuLqG39Ha0-16">
          <mxGeometry width="80" relative="1" as="geometry">
            <mxPoint x="102.5" y="848" as="sourcePoint" />
            <mxPoint x="302.5" y="848" as="targetPoint" />
            <mxPoint as="offset" />
          </mxGeometry>
        </mxCell>
        <mxCell id="tfsZfrH5hsYuIwGa3G0R-20" value="3.1. 선택 이미지 Id 변수에 파일명 제거, 선택 이미지 갯수 변수에 -1" style="html=1;align=left;spacingLeft=2;endArrow=block;rounded=0;edgeStyle=orthogonalEdgeStyle;curved=0;rounded=0;" edge="1" parent="9qTblX96NDCuLqG39Ha0-16">
          <mxGeometry x="-0.0526" relative="1" as="geometry">
            <mxPoint x="300.5" y="865" as="sourcePoint" />
            <Array as="points">
              <mxPoint x="325.5" y="865" />
              <mxPoint x="325.5" y="905" />
            </Array>
            <mxPoint x="300.5" y="905" as="targetPoint" />
            <mxPoint as="offset" />
          </mxGeometry>
        </mxCell>
        <mxCell id="tfsZfrH5hsYuIwGa3G0R-21" value="3.2. &amp;lt;저장&amp;gt;,&amp;lt;삭제&amp;gt; 버튼 비활성화" style="endArrow=open;endSize=12;dashed=1;html=1;rounded=0;" edge="1" parent="9qTblX96NDCuLqG39Ha0-16">
          <mxGeometry y="-10" width="160" relative="1" as="geometry">
            <mxPoint x="297.5" y="970" as="sourcePoint" />
            <mxPoint x="102.5" y="970" as="targetPoint" />
            <mxPoint x="1" as="offset" />
          </mxGeometry>
        </mxCell>
        <mxCell id="tfsZfrH5hsYuIwGa3G0R-22" value="alt" style="shape=umlFrame;whiteSpace=wrap;html=1;pointerEvents=0;" vertex="1" parent="9qTblX96NDCuLqG39Ha0-16">
          <mxGeometry x="30" y="587" width="460" height="190" as="geometry" />
        </mxCell>
        <mxCell id="tfsZfrH5hsYuIwGa3G0R-23" value="ref" style="shape=umlFrame;whiteSpace=wrap;html=1;pointerEvents=0;" vertex="1" parent="9qTblX96NDCuLqG39Ha0-16">
          <mxGeometry x="30" y="895" width="340" height="125" as="geometry" />
        </mxCell>
        <mxCell id="tfsZfrH5hsYuIwGa3G0R-25" value="" style="line;strokeWidth=1;fillColor=none;align=left;verticalAlign=middle;spacingTop=-1;spacingLeft=3;spacingRight=3;rotatable=0;labelPosition=right;points=[];portConstraint=eastwest;strokeColor=inherit;" vertex="1" parent="9qTblX96NDCuLqG39Ha0-16">
          <mxGeometry x="30" y="674" width="460" height="8" as="geometry" />
        </mxCell>
        <mxCell id="tfsZfrH5hsYuIwGa3G0R-26" value="[0 &amp;lt; 갯수 변수 &amp;lt; 11]" style="text;align=center;fontStyle=1;verticalAlign=middle;spacingLeft=3;spacingRight=3;strokeColor=none;rotatable=0;points=[[0,0.5],[1,0.5]];portConstraint=eastwest;html=1;" vertex="1" parent="9qTblX96NDCuLqG39Ha0-16">
          <mxGeometry x="130" y="592" width="80" height="26" as="geometry" />
        </mxCell>
        <mxCell id="tfsZfrH5hsYuIwGa3G0R-27" value="[갯수 변수 &amp;lt; 1]" style="text;align=center;fontStyle=1;verticalAlign=middle;spacingLeft=3;spacingRight=3;strokeColor=none;rotatable=0;points=[[0,0.5],[1,0.5]];portConstraint=eastwest;html=1;" vertex="1" parent="9qTblX96NDCuLqG39Ha0-16">
          <mxGeometry x="128" y="900" width="80" height="26" as="geometry" />
        </mxCell>
        <mxCell id="tfsZfrH5hsYuIwGa3G0R-28" value="Actor" style="rounded=0;whiteSpace=wrap;html=1;" vertex="1" parent="1">
          <mxGeometry x="54" y="1237" width="120" height="60" as="geometry" />
        </mxCell>
        <mxCell id="tfsZfrH5hsYuIwGa3G0R-29" value="Front" style="rounded=0;whiteSpace=wrap;html=1;" vertex="1" parent="1">
          <mxGeometry x="254" y="1237" width="120" height="60" as="geometry" />
        </mxCell>
        <mxCell id="tfsZfrH5hsYuIwGa3G0R-30" value="Back" style="rounded=0;whiteSpace=wrap;html=1;" vertex="1" parent="1">
          <mxGeometry x="454" y="1237" width="120" height="60" as="geometry" />
        </mxCell>
        <mxCell id="tfsZfrH5hsYuIwGa3G0R-31" value="DB" style="rounded=0;whiteSpace=wrap;html=1;" vertex="1" parent="1">
          <mxGeometry x="654" y="1237" width="120" height="60" as="geometry" />
        </mxCell>
        <mxCell id="tfsZfrH5hsYuIwGa3G0R-32" value="" style="endArrow=none;dashed=1;html=1;rounded=0;entryX=0.5;entryY=1;entryDx=0;entryDy=0;" edge="1" parent="1" target="tfsZfrH5hsYuIwGa3G0R-28">
          <mxGeometry width="50" height="50" relative="1" as="geometry">
            <mxPoint x="110" y="2294" as="sourcePoint" />
            <mxPoint x="442" y="1467" as="targetPoint" />
          </mxGeometry>
        </mxCell>
        <mxCell id="tfsZfrH5hsYuIwGa3G0R-33" value="" style="endArrow=none;dashed=1;html=1;rounded=0;entryX=0.5;entryY=1;entryDx=0;entryDy=0;" edge="1" parent="1">
          <mxGeometry width="50" height="50" relative="1" as="geometry">
            <mxPoint x="310" y="2294" as="sourcePoint" />
            <mxPoint x="313.5" y="1297" as="targetPoint" />
          </mxGeometry>
        </mxCell>
        <mxCell id="tfsZfrH5hsYuIwGa3G0R-34" value="" style="endArrow=none;dashed=1;html=1;rounded=0;entryX=0.5;entryY=1;entryDx=0;entryDy=0;" edge="1" parent="1">
          <mxGeometry width="50" height="50" relative="1" as="geometry">
            <mxPoint x="514" y="2294" as="sourcePoint" />
            <mxPoint x="513.5" y="1297" as="targetPoint" />
          </mxGeometry>
        </mxCell>
        <mxCell id="tfsZfrH5hsYuIwGa3G0R-35" value="" style="endArrow=none;dashed=1;html=1;rounded=0;entryX=0.5;entryY=1;entryDx=0;entryDy=0;" edge="1" parent="1">
          <mxGeometry width="50" height="50" relative="1" as="geometry">
            <mxPoint x="714" y="2294" as="sourcePoint" />
            <mxPoint x="713.5" y="1297" as="targetPoint" />
          </mxGeometry>
        </mxCell>
        <mxCell id="tfsZfrH5hsYuIwGa3G0R-36" value="내사진" style="swimlane;whiteSpace=wrap;html=1;" vertex="1" parent="1">
          <mxGeometry x="10" y="1184" width="810" height="1140" as="geometry">
            <mxRectangle x="10" y="10" width="100" height="30" as="alternateBounds" />
          </mxGeometry>
        </mxCell>
        <mxCell id="tfsZfrH5hsYuIwGa3G0R-37" value="alt" style="shape=umlFrame;whiteSpace=wrap;html=1;pointerEvents=0;" vertex="1" parent="tfsZfrH5hsYuIwGa3G0R-36">
          <mxGeometry x="50" y="216" width="690" height="380" as="geometry" />
        </mxCell>
        <mxCell id="tfsZfrH5hsYuIwGa3G0R-59" value="[0 &amp;lt; 갯수 변수 &amp;lt; 11]" style="text;align=center;fontStyle=1;verticalAlign=middle;spacingLeft=3;spacingRight=3;strokeColor=none;rotatable=0;points=[[0,0.5],[1,0.5]];portConstraint=eastwest;html=1;" vertex="1" parent="tfsZfrH5hsYuIwGa3G0R-36">
          <mxGeometry x="140" y="222" width="80" height="26" as="geometry" />
        </mxCell>
        <mxCell id="tfsZfrH5hsYuIwGa3G0R-60" value="4. &amp;lt;저장&amp;gt; 버튼 클릭" style="html=1;verticalAlign=bottom;endArrow=block;edgeStyle=elbowEdgeStyle;elbow=vertical;curved=0;rounded=0;" edge="1" parent="tfsZfrH5hsYuIwGa3G0R-36">
          <mxGeometry width="80" relative="1" as="geometry">
            <mxPoint x="103" y="272" as="sourcePoint" />
            <mxPoint x="303" y="272" as="targetPoint" />
          </mxGeometry>
        </mxCell>
        <mxCell id="tfsZfrH5hsYuIwGa3G0R-61" value="4.1. 선택 이미지 Id, 갯수 값 전달" style="html=1;verticalAlign=bottom;endArrow=block;edgeStyle=elbowEdgeStyle;elbow=vertical;curved=0;rounded=0;" edge="1" parent="tfsZfrH5hsYuIwGa3G0R-36">
          <mxGeometry width="80" relative="1" as="geometry">
            <mxPoint x="304" y="295" as="sourcePoint" />
            <mxPoint x="504" y="295" as="targetPoint" />
          </mxGeometry>
        </mxCell>
        <mxCell id="tfsZfrH5hsYuIwGa3G0R-62" value="4.1.1. session Id, 선택 이미지 Id 전달" style="html=1;verticalAlign=bottom;endArrow=block;edgeStyle=elbowEdgeStyle;elbow=vertical;curved=0;rounded=0;" edge="1" parent="tfsZfrH5hsYuIwGa3G0R-36">
          <mxGeometry width="80" relative="1" as="geometry">
            <mxPoint x="503" y="318" as="sourcePoint" />
            <mxPoint x="703" y="318" as="targetPoint" />
          </mxGeometry>
        </mxCell>
        <mxCell id="tfsZfrH5hsYuIwGa3G0R-63" value="4.1.1.1.&lt;br&gt;해당 Id 이미지&lt;br&gt;조회" style="html=1;align=left;spacingLeft=2;endArrow=block;rounded=0;edgeStyle=orthogonalEdgeStyle;curved=0;rounded=0;" edge="1" parent="tfsZfrH5hsYuIwGa3G0R-36">
          <mxGeometry x="-0.0667" y="2" relative="1" as="geometry">
            <mxPoint x="703" y="335" as="sourcePoint" />
            <Array as="points">
              <mxPoint x="728" y="335" />
              <mxPoint x="728" y="375" />
            </Array>
            <mxPoint x="703" y="375" as="targetPoint" />
            <mxPoint as="offset" />
          </mxGeometry>
        </mxCell>
        <mxCell id="tfsZfrH5hsYuIwGa3G0R-64" value="4.1.2. 이미지 원본 데이터" style="endArrow=open;endSize=12;dashed=1;html=1;rounded=0;" edge="1" parent="tfsZfrH5hsYuIwGa3G0R-36">
          <mxGeometry x="0.0256" y="-10" width="160" relative="1" as="geometry">
            <mxPoint x="700" y="396" as="sourcePoint" />
            <mxPoint x="505" y="396" as="targetPoint" />
            <mxPoint as="offset" />
          </mxGeometry>
        </mxCell>
        <mxCell id="tfsZfrH5hsYuIwGa3G0R-65" value="4.1.3. 이미지 개수 변수로&lt;br&gt;&lt;span style=&quot;white-space: pre;&quot;&gt;&#x9;&lt;/span&gt;압축 조건 발생 시 처리" style="html=1;align=left;spacingLeft=2;endArrow=block;rounded=0;edgeStyle=orthogonalEdgeStyle;curved=0;rounded=0;" edge="1" parent="tfsZfrH5hsYuIwGa3G0R-36">
          <mxGeometry x="-0.0444" relative="1" as="geometry">
            <mxPoint x="504" y="421" as="sourcePoint" />
            <Array as="points">
              <mxPoint x="529" y="421" />
              <mxPoint x="529" y="461" />
            </Array>
            <mxPoint x="504" y="461" as="targetPoint" />
            <mxPoint as="offset" />
          </mxGeometry>
        </mxCell>
        <mxCell id="tfsZfrH5hsYuIwGa3G0R-67" value="4.2. 로컬 디렉토리 표시" style="html=1;verticalAlign=bottom;endArrow=block;edgeStyle=elbowEdgeStyle;elbow=vertical;curved=0;rounded=0;" edge="1" parent="tfsZfrH5hsYuIwGa3G0R-36">
          <mxGeometry width="80" relative="1" as="geometry">
            <mxPoint x="503" y="482" as="sourcePoint" />
            <mxPoint x="106" y="482" as="targetPoint" />
          </mxGeometry>
        </mxCell>
        <mxCell id="tfsZfrH5hsYuIwGa3G0R-68" value="4.3. 디렉토리 선택 및 &amp;lt;저장&amp;gt; 버튼 클릭" style="html=1;verticalAlign=bottom;endArrow=block;edgeStyle=elbowEdgeStyle;elbow=vertical;curved=0;rounded=0;" edge="1" parent="tfsZfrH5hsYuIwGa3G0R-36">
          <mxGeometry width="80" relative="1" as="geometry">
            <mxPoint x="103" y="524" as="sourcePoint" />
            <mxPoint x="303" y="524" as="targetPoint" />
          </mxGeometry>
        </mxCell>
        <mxCell id="tfsZfrH5hsYuIwGa3G0R-69" value="4.4. 저장 실행" style="endArrow=open;endSize=12;dashed=1;html=1;rounded=0;" edge="1" parent="tfsZfrH5hsYuIwGa3G0R-36">
          <mxGeometry x="0.0256" y="-10" width="160" relative="1" as="geometry">
            <mxPoint x="298" y="569" as="sourcePoint" />
            <mxPoint x="103" y="569" as="targetPoint" />
            <mxPoint as="offset" />
          </mxGeometry>
        </mxCell>
        <mxCell id="tfsZfrH5hsYuIwGa3G0R-70" value="alt" style="shape=umlFrame;whiteSpace=wrap;html=1;pointerEvents=0;" vertex="1" parent="tfsZfrH5hsYuIwGa3G0R-36">
          <mxGeometry x="50" y="652" width="690" height="380" as="geometry" />
        </mxCell>
        <mxCell id="tfsZfrH5hsYuIwGa3G0R-71" value="[0 &amp;lt; 갯수 변수 &amp;lt; 11]" style="text;align=center;fontStyle=1;verticalAlign=middle;spacingLeft=3;spacingRight=3;strokeColor=none;rotatable=0;points=[[0,0.5],[1,0.5]];portConstraint=eastwest;html=1;" vertex="1" parent="tfsZfrH5hsYuIwGa3G0R-36">
          <mxGeometry x="140" y="658" width="80" height="26" as="geometry" />
        </mxCell>
        <mxCell id="tfsZfrH5hsYuIwGa3G0R-72" value="5. &amp;lt;삭제&amp;gt; 버튼 클릭" style="html=1;verticalAlign=bottom;endArrow=block;edgeStyle=elbowEdgeStyle;elbow=vertical;curved=0;rounded=0;" edge="1" parent="tfsZfrH5hsYuIwGa3G0R-36">
          <mxGeometry width="80" relative="1" as="geometry">
            <mxPoint x="103" y="708" as="sourcePoint" />
            <mxPoint x="303" y="708" as="targetPoint" />
            <mxPoint as="offset" />
          </mxGeometry>
        </mxCell>
        <mxCell id="tfsZfrH5hsYuIwGa3G0R-73" value="5.1. 선택 이미지 Id&amp;nbsp;" style="html=1;verticalAlign=bottom;endArrow=block;edgeStyle=elbowEdgeStyle;elbow=vertical;curved=0;rounded=0;" edge="1" parent="tfsZfrH5hsYuIwGa3G0R-36">
          <mxGeometry width="80" relative="1" as="geometry">
            <mxPoint x="304" y="731" as="sourcePoint" />
            <mxPoint x="504" y="731" as="targetPoint" />
          </mxGeometry>
        </mxCell>
        <mxCell id="tfsZfrH5hsYuIwGa3G0R-74" value="5.1.1. session Id, 선택 이미지 Id 전달" style="html=1;verticalAlign=bottom;endArrow=block;edgeStyle=elbowEdgeStyle;elbow=vertical;curved=0;rounded=0;" edge="1" parent="tfsZfrH5hsYuIwGa3G0R-36">
          <mxGeometry width="80" relative="1" as="geometry">
            <mxPoint x="503" y="754" as="sourcePoint" />
            <mxPoint x="703" y="754" as="targetPoint" />
            <mxPoint as="offset" />
          </mxGeometry>
        </mxCell>
        <mxCell id="tfsZfrH5hsYuIwGa3G0R-75" value="5.1.1.1.&lt;br&gt;해당 Id 이미지&lt;br&gt;삭제" style="html=1;align=left;spacingLeft=2;endArrow=block;rounded=0;edgeStyle=orthogonalEdgeStyle;curved=0;rounded=0;" edge="1" parent="tfsZfrH5hsYuIwGa3G0R-36">
          <mxGeometry x="-0.0667" y="2" relative="1" as="geometry">
            <mxPoint x="703" y="771" as="sourcePoint" />
            <Array as="points">
              <mxPoint x="728" y="771" />
              <mxPoint x="728" y="811" />
            </Array>
            <mxPoint x="703" y="811" as="targetPoint" />
            <mxPoint as="offset" />
          </mxGeometry>
        </mxCell>
        <mxCell id="tfsZfrH5hsYuIwGa3G0R-76" value="5.1.2. 해당 결과값" style="endArrow=open;endSize=12;dashed=1;html=1;rounded=0;" edge="1" parent="tfsZfrH5hsYuIwGa3G0R-36">
          <mxGeometry x="0.0256" y="-10" width="160" relative="1" as="geometry">
            <mxPoint x="700" y="915" as="sourcePoint" />
            <mxPoint x="505" y="915" as="targetPoint" />
            <mxPoint as="offset" />
          </mxGeometry>
        </mxCell>
        <mxCell id="tfsZfrH5hsYuIwGa3G0R-77" value="5.1.1.2.&lt;br&gt;처리 내역 조회" style="html=1;align=left;spacingLeft=2;endArrow=block;rounded=0;edgeStyle=orthogonalEdgeStyle;curved=0;rounded=0;" edge="1" parent="tfsZfrH5hsYuIwGa3G0R-36">
          <mxGeometry x="-0.0444" relative="1" as="geometry">
            <mxPoint x="704" y="838" as="sourcePoint" />
            <Array as="points">
              <mxPoint x="729" y="838" />
              <mxPoint x="729" y="878" />
            </Array>
            <mxPoint x="704" y="878" as="targetPoint" />
            <mxPoint as="offset" />
          </mxGeometry>
        </mxCell>
        <mxCell id="tfsZfrH5hsYuIwGa3G0R-80" value="5.3. 해당 페이지" style="endArrow=open;endSize=12;dashed=1;html=1;rounded=0;" edge="1" parent="tfsZfrH5hsYuIwGa3G0R-36">
          <mxGeometry x="0.0256" y="-10" width="160" relative="1" as="geometry">
            <mxPoint x="298" y="990" as="sourcePoint" />
            <mxPoint x="103" y="990" as="targetPoint" />
            <mxPoint as="offset" />
          </mxGeometry>
        </mxCell>
        <mxCell id="tfsZfrH5hsYuIwGa3G0R-81" value="5.2. 해당 결과값" style="endArrow=open;endSize=12;dashed=1;html=1;rounded=0;" edge="1" parent="tfsZfrH5hsYuIwGa3G0R-36">
          <mxGeometry x="0.0256" y="-10" width="160" relative="1" as="geometry">
            <mxPoint x="501" y="952" as="sourcePoint" />
            <mxPoint x="306" y="952" as="targetPoint" />
            <mxPoint as="offset" />
          </mxGeometry>
        </mxCell>
      </root>
    </mxGraphModel>
  </diagram>
</mxfile>
